<?xml version="1.0" encoding="UTF-8"?>
<svg id="Layer_2" xmlns="http://www.w3.org/2000/svg" xmlns:xlink="http://www.w3.org/1999/xlink" viewBox="0 0 273.79 221.85">
  <defs>
    <style>
      .cls-1 {
        fill: url(#linear-gradient-2);
      }

      .cls-2 {
        fill: #5b310d;
      }

      .cls-3 {
        fill: #fff;
      }

      .cls-4 {
        fill: url(#linear-gradient-3);
      }

      .cls-5 {
        fill: #86bc65;
      }

      .cls-6 {
        fill: #ef5725;
      }

      .cls-7 {
        fill: url(#linear-gradient);
      }

      .cls-8 {
        fill: #271000;
      }

      .cls-9 {
        fill: #232e62;
      }
    </style>
    <linearGradient id="linear-gradient" x1="207.26" y1="192.59" x2="227.52" y2="157.49" gradientUnits="userSpaceOnUse">
      <stop offset="0" stop-color="#5b310d"/>
      <stop offset=".44" stop-color="#955124"/>
      <stop offset=".51" stop-color="#9f5728"/>
      <stop offset=".84" stop-color="#643610"/>
      <stop offset=".89" stop-color="#5b310d"/>
    </linearGradient>
    <linearGradient id="linear-gradient-2" x1="19.6" y1="111" x2="168.37" y2="111" gradientUnits="userSpaceOnUse">
      <stop offset="0" stop-color="#856927"/>
      <stop offset=".05" stop-color="#9b7c2d"/>
      <stop offset=".11" stop-color="#b18f34"/>
      <stop offset=".17" stop-color="#bf9b38"/>
      <stop offset=".22" stop-color="#c49f3a"/>
      <stop offset=".27" stop-color="#d8b73f"/>
      <stop offset=".33" stop-color="#ebcd44"/>
      <stop offset=".38" stop-color="#f7db47"/>
      <stop offset=".44" stop-color="#fbe049"/>
      <stop offset=".58" stop-color="#c0a538"/>
      <stop offset=".73" stop-color="#856927"/>
      <stop offset=".78" stop-color="#886c28"/>
      <stop offset=".83" stop-color="#94782b"/>
      <stop offset=".88" stop-color="#a88c31"/>
      <stop offset=".93" stop-color="#c3a738"/>
      <stop offset=".98" stop-color="#e6cb43"/>
      <stop offset="1" stop-color="#fbe049"/>
    </linearGradient>
    <linearGradient id="linear-gradient-3" x1="0" y1="110.93" x2="156.86" y2="110.93" xlink:href="#linear-gradient-2"/>
  </defs>
  <g id="Layer_1-2" data-name="Layer_1">
    <circle class="cls-3" cx="93.99" cy="111.41" r="67.43"/>
    <g>
      <path class="cls-7" d="M161.41,154.89s83.75,59.96,86.44,61.13c9.38,4.1,16.77-3.66,22.39-12.39,6.03-9.35,3.53-19.76-1.21-22.16-3.55-1.8-100.48-42.02-100.48-42.02,0,0-1.86,9.51-7.14,15.44Z"/>
      <path class="cls-2" d="M150.3,158.56s-.83,5.14,3.35,7.11c5.81,2.74,14.2-5.14,20.17-17.29,5.97-12.16,6.68-19.87.7-22.89-4.13-2.08-9.71,3.97-9.71,3.97,0,0-.95,10.52-14.5,29.1Z"/>
      <g>
        <path class="cls-8" d="M180.06,163.49l-.15-.1c-.98-.65-1.55-1.44-1.71-2.36-.15-.76-.01-1.67.4-2.72.25-.65.72-1.58,1.4-2.78l.86-1.54c.32-.34.63-.68.95-1.03.32-.35.64-.69.97-1,.33-.31.66-.58,1.01-.82.35-.23.73-.4,1.12-.5.4-.1.82-.12,1.25-.06.44.06.92.24,1.43.53.62.35,1.06.73,1.32,1.13.26.4.39.83.4,1.29,0,.46-.09.94-.3,1.45-.2.51-.47,1.05-.78,1.61-.3.53-.66.84-1.09.92-.43.08-.94-.05-1.54-.39-.27-.15-.44-.29-.52-.42-.12-.18-.16-.48-.14-.89l-.23-.13c-.36-.2-.78-.1-1.27.31-.36.29-.67.66-.91,1.1-.29.52-.48.99-.56,1.42-.13.63.01,1.07.43,1.3.16.09.29.1.41.04.12-.06.24-.16.34-.29.11-.14.22-.29.33-.45.11-.16.24-.31.37-.43.14-.12.29-.2.46-.23.17-.03.38.02.61.15.57.32.98.72,1.26,1.21.33.6.35,1.17.04,1.7-.34.61-.87,1.14-1.59,1.58-.72.45-1.48.71-2.29.8-.87.1-1.63-.04-2.29-.41ZM179.74,161.76c.07-.12.07-.29.01-.5-.07-.22-.15-.36-.26-.42-.04-.02-.23-.04-.58-.06-.07,0-.12,0-.15-.03-.08.14-.13.23-.15.29-.02.05,0,.1.06.13l1.06.6ZM179.5,159.44c.06.03.11.03.14-.01.04-.04.07-.09.11-.16.08-.14.12-.28.13-.43,0-.18-.04-.29-.15-.35-.16-.09-.33.02-.5.33-.03.06-.03.16.03.31.05.15.13.25.25.32ZM180.07,156.63s.08,0,.11-.05c.04-.06.03-.1,0-.13-.04-.02-.08,0-.12.06-.03.06-.03.1.01.12ZM180.18,159.05l.13-.23c-.06-.04-.11-.03-.15,0-.03.04-.07.09-.1.16l.12.07ZM180.53,157.07c.06.03.1.03.14-.02.04-.04.07-.1.1-.15l-.23-.13c-.03.06-.06.11-.08.17-.02.05,0,.1.07.13ZM181.04,158.91c.06-.12.06-.23,0-.34-.07-.11-.16-.2-.28-.27-.12-.06-.2-.07-.25-.03-.05.05-.11.13-.17.24l.7.4ZM179.95,162.49l.07-.12-.12-.07-.07.12.12.07ZM180.65,161.8l.14-.24.02-.3c.25-.27.4-.45.44-.52.06-.1,0-.29-.2-.54-.16-.22-.32-.37-.48-.46-.07.12-.1.24-.09.35,0,.11.02.22.05.33.03.11.05.22.07.34.02.12,0,.24-.03.38l-.31.29.04.18.35.2ZM180.54,162.82c.06.04.25-.03.56-.19.31-.17.5-.3.56-.41-.24-.14-.48-.17-.73-.1-.24.07-.43.22-.56.46l.05.19.12.06ZM182.28,154.5l.07-.12-.19.05.12.07ZM182.56,153.72s.08.03.15.03c.17.01.32.01.45,0l.12.06c.27.25.45.4.53.45.24.13.42.08.55-.15-.31-.39-.42-.66-.34-.8.06-.02.13-.04.21-.06.07-.02.18-.03.31-.03.13,0,.21.01.26.03.06.04.09.09.09.15s0,.13,0,.21c0,.08,0,.15,0,.22,0,.07.05.13.13.18.27.15.54.07.79-.24.07-.08.14-.16.21-.23.15-.15.29-.19.42-.12.01.05.04.11.08.18.04.08.09.16.14.25.05.09.1.17.14.25.04.08.07.14.08.18.06.03.1.03.14-.01.03-.04.07-.09.11-.16.05-.09.05-.19,0-.32-.04-.12-.09-.26-.15-.39-.06-.14-.1-.28-.14-.42-.03-.14-.02-.27.05-.39.05-.08.1-.12.18-.13.07,0,.15,0,.25.02.09.02.19.05.29.08.1.03.2.05.3.07.1,0,.2,0,.28-.04.09-.04.17-.11.23-.23-.25-.14-.55-.34-.9-.58-.34-.24-.61-.42-.81-.53-.21-.12-.41-.19-.59-.22-.18-.03-.34-.02-.5,0-.15.04-.3.09-.46.16-.15.08-.3.16-.46.24-.16.08-.33.16-.51.23-.19.08-.39.13-.61.15-.03.06-.02.13.02.22.05.09.1.18.17.27.06.09.12.19.16.27.05.09.06.16.03.22-.13.24-.27.39-.4.45-.14.06-.26.1-.38.1-.12,0-.22,0-.31,0-.1,0-.17.03-.21.12l-.13.23ZM183.21,152.85l.07-.12-.23-.13c-.04.06-.03.11,0,.15.04.03.09.07.15.1ZM181.91,162.04c.18-.32.11-.56-.2-.74-.18.32-.11.56.2.74ZM181.8,163.06c.06.04.11.03.15,0,.03-.04.07-.09.11-.16l-.24-.14c-.04.06-.06.12-.08.17-.02.05,0,.09.07.13ZM184.5,152.48l-.11-.06.06-.11.11.06-.06.11ZM184.44,153.69l.13-.23-.12-.07-.13.23.12.07ZM182.92,162.45c.12.07.28.08.49.03.21-.05.33-.1.37-.17l.07-.11-.05-.19-.12-.07c-.1-.05-.23-.01-.41.12-.15.11-.26.24-.34.39ZM185.2,152.88c-.02-.09-.04-.18-.05-.28,0-.1.02-.2.08-.32.1-.18.22-.35.37-.51.14-.16.28-.36.42-.6.13.07.28.2.46.39.23.26.3.46.21.61l-.61-.03.16.55c-.16-.05-.28-.07-.37-.06-.08,0-.15.03-.22.07-.06.04-.12.07-.18.11-.06.04-.15.06-.27.07ZM185.65,154.84l.13-.23c-.11-.06-.21-.1-.28-.12-.07-.01-.14.04-.21.15l.35.2ZM184.7,159.58l-.05-.19-.07.12.12.07ZM187.81,154.04c.06.04.13.04.2.02.08-.02.12-.06.16-.12l-.23-.13-.13.23ZM188.02,153.38l.31.02.07-.12c-.03-.09-.06-.18-.09-.26-.03-.08-.07-.14-.13-.17l-.2.35.04.18Z"/>
        <path class="cls-8" d="M189.05,167.77c-1.03-.58-1.7-1.3-2-2.17-.33-.92-.2-1.9.38-2.93.62-1.1,1.65-1.44,3.1-1.04.51.14,1.07.39,1.69.73.29.16.6.36.94.59l.19-.05.86-1.53c.09-.16.09-.32,0-.47-.09-.16-.24-.29-.43-.4-.12-.07-.25-.08-.39-.02-.14.05-.28.13-.43.23-.15.1-.31.2-.47.3-.17.1-.33.16-.5.18l-.48-.27c-.36-.2-.66-.42-.9-.66-.31-.3-.49-.61-.53-.91l.27-.47c.27-.48.73-.86,1.39-1.12.6-.24,1.24-.36,1.94-.33.69.02,1.28.17,1.75.43.61.34,1.09.66,1.44.96.35.3.6.59.76.88.16.29.23.58.22.88,0,.3-.08.63-.2.98-.12.35-.29.75-.49,1.18-.21.43-.42.92-.65,1.46-.17.37-.32.75-.46,1.16-.14.4-.28.8-.42,1.2-.14.4-.28.79-.43,1.16-.15.38-.31.73-.5,1.05-.25.44-.67.69-1.27.75-.56.05-1.08-.06-1.59-.35-.12-.06-.2-.15-.24-.25-.04-.11-.09-.22-.12-.33-.03-.12-.07-.23-.12-.33-.04-.11-.13-.19-.25-.26-.15-.08-.3-.12-.48-.12-.18,0-.36,0-.54.02-.18.01-.36.02-.53.02-.18,0-.34-.04-.49-.13ZM187.88,164.62l.07-.11-.12-.07-.06.11.12.07ZM188.65,164.91c.15-.26.15-.53-.02-.79l-.19.05c0,.06,0,.12,0,.17,0,.11.01.21.04.31.02.1.04.16.05.18.01.02.05.05.11.08ZM188.96,167.09c.24.13.47.21.69.22.22.01.43,0,.64-.01.2-.02.4-.03.59-.04.19,0,.38.04.55.14.15.08.25.19.31.32.05.13.1.26.13.39.03.13.07.26.1.38.04.12.12.21.24.28.14.08.42.03.85-.15-.11-.21-.17-.41-.16-.57,0-.16.06-.34.16-.52.05-.09.11-.15.2-.19.08-.04.17-.08.26-.12.18-.07.3-.17.36-.27.02-.04.04-.09.07-.16.24.13.41.21.51.23.17.03.3-.04.39-.19.17-.31.22-.49.15-.53l-.12-.07-.29-.02-.12-.07c-.09-.05-.1-.24-.02-.57.05-.24.12-.43.2-.57-.06-.03-.12-.03-.21,0-.08.04-.17.09-.27.15-.09.06-.19.13-.29.19-.1.07-.19.11-.29.15l-.06.11v.3s-.49-.26-.49-.26c-.22.39-.56.58-1.03.58-.27,0-.74-.09-1.38-.28-.64-.19-1.11-.29-1.4-.28-.47.01-.83.23-1.08.66l.24.13.42.08.15.55ZM189.36,166.39l-.23-.13.06-.11.23.13-.07.11ZM190.21,165.16c1.02.57,1.64.66,1.86.27.17-.31.12-.64-.16-.99-.2-.24-.51-.48-.9-.7-.24-.14-.5-.18-.79-.13-.28.05-.49.19-.62.42-.15.27-.14.53.02.79l.59.33ZM191.97,158.71l.07-.12-.12-.07-.07.12.12.07ZM191.68,159.78c.18.1.35.13.52.09.17-.04.3-.16.4-.34.18-.32.11-.56-.21-.74-.11.2-.24.38-.39.54-.15.17-.26.32-.33.45ZM192.26,160.42l.13-.23c-.06-.03-.13-.04-.2-.02-.08.02-.13.06-.16.12l.23.13ZM193,158.82c.78.44,1.31.43,1.57-.05-.06-.03-.14-.08-.23-.14-.09-.06-.19-.12-.3-.18-.59-.33-.95-.37-1.09-.12-.07.12-.1.21-.12.28-.02.07.04.14.16.21ZM193.01,159.91l.19-.04.07-.12-.1-.36c-.06-.04-.11-.03-.14,0-.04.04-.07.09-.11.16-.04.06-.06.12-.06.18,0,.06.05.12.16.18ZM193.23,165.31c.13-.24.08-.42-.15-.55-.13.24-.08.42.15.55ZM192.85,166.81l-.06-.19c.04-.06.08-.08.14-.07.05.02.15.07.28.15l-.37.11ZM195.59,160.43c.15.09.3.15.45.18.15.03.31.1.49.2.05-.09.07-.17.06-.24-.03-.13-.11-.24-.26-.34l-.31-.17-.41-.09c-.13-.07-.19-.26-.19-.56,0-.07,0-.12-.02-.17-.24.07-.41.13-.51.19-.05.02-.11.09-.17.2.05.03.19.16.4.38.21.22.36.36.47.42ZM193.57,168.29c.12.06.24.1.37.09.13,0,.23-.07.3-.18l.06-.11c-.06-.03-.15-.11-.26-.22-.11-.12-.19-.19-.26-.23-.11-.07-.2-.08-.24-.04-.05.04-.09.08-.12.14-.09.16-.12.28-.09.36.02.05.1.11.24.19ZM195.29,158.88l.07-.12-.23-.13-.07.12.23.13ZM194.04,167.47c.05.03.12.04.2.02.08-.02.13-.06.17-.13-.06-.04-.13-.04-.2-.02-.07.03-.13.07-.16.13ZM195.05,164.01c.06.03.11.06.17.07.05.02.1,0,.14-.07l-.05-.19-.11-.06-.14.24ZM195.73,162.23l.07-.12-.11-.07-.06.12.11.06ZM196.37,159.59s.08,0,.11-.05c.04-.06.03-.11,0-.13-.04-.02-.08,0-.11.06-.03.06-.03.1.01.12ZM196.98,161.67c.08-.15.12-.26.1-.33-.02-.07-.1-.14-.25-.23,0,.04.01.09.01.14,0,.05,0,.1,0,.15,0,.05,0,.09.03.14.02.05.06.08.12.12Z"/>
        <path class="cls-8" d="M198.58,172.81c-.44-.25-.83-.58-1.17-1.01-.33-.42-.59-.88-.76-1.38-.17-.5-.26-1-.25-1.52,0-.52.14-1,.38-1.44.31-.55.65-.9,1.01-1.05s.81-.09,1.32.2l.36.2.15.55-.73,1.3c-.04.08.13.23.53.46.28.16.58.17.88.02.3-.14.55-.37.72-.68.25-.45.29-.91.11-1.39-.12-.3-.38-.71-.79-1.25-.4-.54-.66-.97-.76-1.29-.18-.49-.13-.98.13-1.45.5-.88,1.23-1.38,2.19-1.48.85-.09,1.72.12,2.63.63.76.43,1.34.97,1.75,1.62.48.78.52,1.52.13,2.22-.23.41-.51.68-.83.79-.32.12-.72.04-1.19-.22-.18-.1-.31-.24-.39-.41-.08-.18-.16-.36-.23-.56-.07-.2-.14-.38-.22-.56-.08-.18-.21-.32-.39-.42-.24-.13-.42-.08-.55.15-.1.18-.11.4-.04.67.08.27.19.56.34.88.15.32.32.67.49,1.04.68,1.46.76,2.65.24,3.58-.25.44-.56.84-.93,1.19-.37.35-.78.62-1.22.8-.44.19-.91.27-1.41.26-.5-.01-.99-.16-1.49-.44ZM197.7,171.08c.03-.06.05-.15.06-.27,0-.13,0-.23-.03-.32l-.19.04-.07.12c.03.1.06.19.08.26.03.08.08.13.14.17ZM198.84,172.35c.28.16.66.26,1.14.32.53.07.85,0,.97-.22.07-.12.09-.19.07-.23-.02-.04-.12-.11-.29-.2.11-.07.26-.1.47-.09.15.01.3.06.44.13-.03-.1-.04-.22-.04-.35,0-.14,0-.28,0-.43.12.06.2.08.25.04.05-.04.09-.09.12-.15.07-.11.11-.25.15-.39.04-.15.1-.31.2-.49l-.12-.07c-.2-.11-.34-.08-.44.09-.04.07-.08.16-.1.25-.03.09-.05.17-.09.23-.08-.04-.14-.13-.17-.26-.01-.04-.03-.09-.05-.14-.02-.04-.1-.11-.24-.18-.37.11-.66.36-.88.76-.05.08-.06.16-.02.22.04.06.09.11.15.16.07.05.13.11.19.19.06.07.1.17.11.29-.17-.1-.33-.14-.46-.14-.14,0-.27.02-.39.05-.12.02-.25.04-.37.06-.12.02-.26-.02-.41-.11l-.03-.48c-.16-.09-.32-.15-.47-.19-.21-.04-.36,0-.43.14-.03.05.04.29.19.71l.07.21.47.27ZM198.39,170.39c.06.04.14.04.21.02.08-.02.13-.06.17-.13.17-.31.22-.49.14-.53l-.12-.07-.4.71ZM200.63,163.12c.3,0,.53-.13.68-.4-.17-.1-.3-.15-.38-.17-.08-.02-.15.03-.22.15-.13.24-.16.38-.08.42ZM200.4,165.16c.13.08.36.11.69.12.33,0,.52-.05.59-.17l-.24-.14-.29-.02-.12-.07c-.09-.06-.12-.13-.07-.22.02-.03.05-.07.08-.1.03-.03.06-.07.08-.09l.46.26c.04-.07.09-.36.15-.84.06-.49.06-.75,0-.78l-.12-.07c-.03.05-.11.11-.25.17-.14.06-.22.12-.25.17-.08.14-.11.25-.11.33,0,.08,0,.15-.03.2-.07.12-.16.23-.26.33-.11.09-.19.2-.26.31-.07.12-.12.24-.16.35-.03.11,0,.2.12.26ZM199.28,171.04c.06.03.12.04.2.02.07-.02.13-.06.16-.12l-.23-.13-.13.23ZM202.1,164.09s.21.01.54-.01c.49-.05.8-.07.94-.07.36,0,.59.02.7.07l-.33.59.35.2c.09-.15.18-.26.28-.33.1-.07.2-.12.31-.17.11-.05.2-.1.3-.15.1-.05.17-.14.25-.26.09-.16.05-.34-.11-.55-.14-.17-.29-.3-.45-.39-.12-.06-.24-.11-.39-.14-.14-.03-.27-.07-.39-.14-.06-.03-.13-.1-.22-.2-.09-.1-.19-.18-.3-.25-.05-.03-.23-.05-.54-.08-.31-.03-.62-.04-.93-.03-.33.02-.53.08-.6.2-.03.06-.04.12-.01.2.02.08.07.13.13.17.09.05.22.08.41.08.19,0,.33.03.42.09.12.06.17.13.16.2-.01.07-.05.16-.11.28l-.43.22c-.08.14-.12.24-.13.3,0,.06.05.12.17.18ZM201.45,166.06c.06.04.12.01.16-.07.04-.08.03-.13-.03-.17-.06-.03-.11,0-.15.07-.04.08-.04.14.02.17ZM200.97,171.06c-.06-.04-.12-.07-.16-.11-.04-.04-.05-.08-.02-.14l.24.13-.06.11ZM201.76,169.65l.07-.12-.05-.19-.07.12.06.19ZM202.99,163.05c-.06-.03-.07-.09-.02-.17.04-.07.09-.1.15-.06.06.03.08.09.04.16-.05.08-.1.1-.16.07ZM203.46,163.31s-.02-.02-.01-.03c0-.02.03-.04.06-.04.07-.03.12-.04.14-.03.02,0,.02.03,0,.05-.04.06-.06.1-.08.1,0,0-.05-.01-.11-.05ZM202.72,171.27c.06.03.1.03.14-.02.04-.04.07-.09.1-.15.1-.17.16-.3.19-.39.05-.16.01-.26-.09-.32-.06-.04-.12-.06-.18-.06-.06,0-.12.05-.18.16-.22.39-.21.65.02.79ZM203.16,168.25l.06-.11-.11-.06-.06.11.11.06ZM202.94,169.22c.06.03.12.06.16.08.05.02.1,0,.13-.07l-.23-.13-.07.12ZM203.13,169.95c.12.07.2.08.25.05.05-.04.09-.09.13-.15.06-.12.09-.19.08-.22,0-.03-.08-.08-.19-.15l-.18.06-.06.11-.03.3ZM204.93,165.68c.14-.12.25-.19.34-.21.09-.03.18-.04.26-.04.08,0,.17-.01.25-.02.08-.01.19-.06.31-.14,0-.12-.03-.21-.1-.25-.03-.02-.06-.03-.09-.04-.04,0-.07-.02-.1-.04.02-.03.05-.07.09-.11l.05-.07c.1-.18.06-.32-.12-.42-.1-.06-.26.02-.47.23-.18.16-.31.33-.41.51l-.13.19s-.03.06-.04.1c-.02.04-.02.09,0,.15.01.06.07.11.15.16Z"/>
        <path class="cls-8" d="M204.04,176.67l-.71-.4c-.17-.18-.26-.38-.26-.61,0-.39.13-.82.4-1.29l.35-.62c.27-.52.59-1.1.96-1.76.1-.18.22-.39.36-.64.15-.25.31-.53.49-.85.19-.32.37-.64.56-.98.71-1.28,1.2-2.33,1.48-3.17.45-1.35.82-2.29,1.13-2.83.26-.47.67-.79,1.23-.94.55-.15,1.06-.1,1.54.17.24.13.42.32.56.55.14.23.17.48.11.75-.97,1.73-1.83,3.52-2.57,5.39l.23.13c.15.09.3.14.45.16.15.02.31.03.47.04.41.03.74.11.99.25.41.24.75.54.99.92.48.77.64,1.63.49,2.59-.07.46-.22.88-.44,1.26-.47.83-.81,1.42-1.04,1.76-.55.83-1.08,1.44-1.6,1.82-.67.49-1.29.58-1.85.26-.35-.2-.58-.47-.67-.81-.09-.34-.04-.68.16-1.04.15-.27.43-.62.83-1.06.4-.43.66-.76.78-.98.16-.28.27-.55.32-.8.06-.31.04-.56-.06-.76l-.35-.2c-.36-.2-.68-.24-.98-.13-.29.12-.54.35-.74.71-.2.36-.38.72-.54,1.1-.16.37-.34.74-.54,1.09l-.53.94c-.3.31-.65.43-1.05.37-.22-.03-.54-.17-.96-.4ZM204.21,174.44c.09.05.19.07.33.06.17,0,.28-.05.34-.15l-.04-.18-.12-.07c-.1.03-.21.07-.33.14-.05.03-.11.09-.17.2ZM204.07,176.06c.11.06.36.12.75.17.35.05.62.08.8.09l.07-.12c.06-.11-.23-.42-.9-.93-.2-.14-.34-.24-.43-.29l-.19.05c-.07.12-.12.29-.16.5-.06.29-.04.46.05.52ZM205.21,173.76c.12-.03.25-.17.38-.41l-.23-.13s-.04.07-.08.12c-.04.05-.08.1-.11.15-.07.13-.06.22.04.27ZM205.13,175.26c.06.04.11.03.13,0,.02-.03,0-.07-.06-.11-.06-.03-.1-.03-.12,0-.02.04,0,.08.05.11ZM205.82,174.88c.04-.06.05-.15.04-.27-.01-.12-.07-.21-.2-.28-.03-.02-.06-.01-.09.01-.03.03-.07.06-.11.11-.04.05-.07.1-.11.16l.46.26ZM205.92,174.16l.37-.11c.06-.12.06-.23,0-.35-.06-.12-.15-.21-.27-.27l-.19.05c-.07.12-.1.24-.09.38,0,.14.06.23.18.3ZM205.96,175.73l.18-.04c.1-.18.17-.34.2-.5.03-.15.08-.29.15-.4l-.23-.13-.47.83.05.17.12.07ZM208,167.42c.06.04.11.03.15,0,.03-.04.07-.1.11-.16l-.12-.07-.13.23ZM209.53,167.19c.09-.03.21-.07.37-.11.15-.04.27-.07.37-.11.04-.11.04-.2.02-.28-.03-.08-.08-.14-.13-.2-.06-.06-.12-.12-.19-.17-.07-.06-.13-.11-.18-.18-.04-.06-.07-.14-.08-.22,0-.08.02-.18.09-.3.11.06.2.14.26.22.06.08.15.16.26.22.08.04.27-.21.58-.75l-1.17-.66.07-.12c.05-.08.13-.14.24-.17l.71.4c.06.04.11.03.15-.01.04-.04.07-.1.11-.16l-.22-.43.07-.12c.05-.09.13-.14.25-.17.12-.03.2-.08.25-.17.07-.12.11-.21.12-.28.01-.07-.04-.14-.15-.21-.25-.14-.57-.16-.98-.08-.41.09-.67.25-.8.48-.16.28-.3.58-.44.92-.13.34-.28.64-.44.92.07.08.09.15.06.21l-.05.11-.12.18s-.05.1-.07.16c-.01.06.03.14.13.24.1-.03.19-.06.28-.11.09-.04.16-.12.22-.24.12.07.19.15.2.26.01.11.02.21.02.33,0,.11,0,.22.01.33.01.11.08.19.2.26ZM208.05,171.47l.18-.05-.11-.06-.06.11ZM208.77,171.57l.13-.23-.12-.07c-.04.06-.06.11-.08.17-.02.05,0,.1.06.13ZM209.52,171.06c.07.04.12.01.16-.07.04-.07.03-.13-.03-.16-.06-.03-.11-.01-.15.06-.04.08-.04.14.02.17ZM208.81,178.12c.12.06.25.08.4.03.16-.05.26-.13.33-.24l.07-.12c-.12,0-.22.02-.3.02-.08,0-.15.01-.21.03-.06.02-.11.05-.15.09-.04.05-.09.11-.14.19ZM210.55,171.17l.2-.35-.47-.27c-.07.12-.07.24,0,.35.07.11.16.2.28.27ZM209.99,176.29c.16.09.35-.06.57-.45-.4-.22-.64-.26-.73-.1-.05.1-.06.21,0,.34.03.1.09.17.16.21ZM209.59,177c.06.04.13.04.21.02.08-.02.13-.06.16-.12-.06-.04-.13-.04-.21-.03-.08.02-.13.06-.17.12ZM210.38,173.11c.21.12.39.12.54,0,.09-.07.2-.22.33-.45l-.47-.27-.4.71ZM210.97,174.83c.13-.24.14-.49.03-.76-.11-.27-.28-.47-.51-.6-.13.23-.15.48-.04.75.1.27.27.47.52.61ZM210.64,175.42c.06.04.11.03.13,0,.02-.04,0-.08-.06-.12-.06-.04-.1-.03-.13,0-.02.04,0,.08.06.11ZM212.11,172.52l.07-.12-.59-.33-.07.12.59.33ZM212.27,171.68l-.06-.18-.06.11.12.07ZM212.24,173.68s.05-.08.1-.14c.05-.06.09-.13.14-.21.12-.21.16-.39.11-.54-.13.08-.25.16-.37.24-.12.08-.22.13-.32.15.03.1.08.2.14.3.07.1.13.17.2.21Z"/>
        <path class="cls-8" d="M220.16,187.75c-.6-.34-.86-.87-.79-1.6.04-.51.04-.91,0-1.21-.03-.19-.12-.38-.25-.56-.32-.4-.62-.77-.9-1.08-.28-.31-.52-.64-.71-.96-.18-.32-.3-.68-.34-1.08-.05-.4.02-.88.18-1.44l.66-1.17c.32-.57.64-1.15.94-1.74.14-.27.28-.53.42-.78.18-.31.39-.67.65-1.08.26-.41.58-.82.96-1.23.38-.41.81-.71,1.28-.91.47-.2.99-.27,1.57-.21.57.06,1.22.29,1.95.7.53.3.95.67,1.27,1.12.32.45.54.93.65,1.46.11.52.13,1.06.04,1.61-.09.55-.27,1.08-.56,1.58-.26.47-.59.94-.98,1.4-.39.46-.78.91-1.19,1.34-.4.43-.78.85-1.13,1.25-.35.4-.65.81-.9,1.25.02.17.05.34.1.52.17.7.17,1.22-.02,1.55-.12.21-.36.44-.74.69-.41.28-.8.47-1.17.59-.45.14-.78.15-1,.03ZM217.83,180.86l.07-.12-.12-.06-.07.12.11.06ZM218.17,182.45l.19-.05c.04-.08-.05-.19-.29-.32-.04.06-.06.12-.06.18,0,.06.05.12.16.19ZM218.81,181.88l.18-.06c.07-.11.07-.23.02-.34-.06-.11-.11-.18-.18-.22-.07.12-.12.23-.15.34-.04.11,0,.2.12.27ZM219.09,181.11c.13-.24.16-.38.08-.42l-.18.05c-.07.12-.08.21-.05.25.03.05.08.09.15.12ZM219.96,177.09l.07-.12-.11-.06-.07.12.11.06ZM220.54,176.33c.06.03.16.03.3,0,.14-.04.22-.09.26-.15.07-.13.12-.31.16-.55.01-.1.03-.2.06-.31.03-.1.15-.34.35-.69l.18-.05c-.1.56,0,.93.31,1.11.06.03.16.05.27.03.12-.01.21-.07.28-.19-.05-.11-.08-.26-.09-.45,0-.19-.02-.39-.02-.58,0-.2-.02-.38-.05-.54-.03-.16-.08-.27-.17-.32-.21-.12-.46-.03-.76.26-.23.22-.44.49-.62.81l-.08.42-.54.95.05.17.12.07ZM219.17,183.16c.06-.04.15-.06.27-.05.12,0,.24.02.35.03.12.02.22.03.31.04.09.01.15,0,.16-.02l.21-.66-.11-.06s-.1.09-.25.17c-.15.08-.24.13-.26.17-.08.05-.2.06-.36.02-.16-.04-.26-.01-.31.07-.04.06-.06.12-.08.17-.02.05,0,.09.06.12ZM220.17,181.4c.47-.84.91-1.42,1.32-1.77.34-.3.64-.38.89-.24.1.06.16.12.18.2.02.08.02.17.01.27-.01.1-.04.2-.07.3-.03.1-.05.2-.06.3,0,.1,0,.2.04.28.04.09.11.17.23.23.11.06.2.07.25.02.05-.05.11-.13.18-.25.33-.59.6-1.11.79-1.55.33-.75.51-1.39.53-1.93.02-.69-.22-1.18-.71-1.46-.16-.09-.33-.08-.52.02-.55.3-1.22,1.15-2.01,2.56l-1.27,2.26c-.07.12-.1.24-.1.37,0,.13.07.23.19.29l.11.07ZM220.52,187.23c.13.07.22.05.28-.05l.06-.11.02-.31.06-.11.19-.05c-.04.06-.04.13-.03.21.02.08.03.17.06.27.27.02.57-.14.89-.48.24-.25.45-.53.62-.84l-.47-.26c.09-.17.17-.43.22-.78.06-.41.01-.65-.15-.74-.05-.03-.12-.05-.19-.07-.07-.01-.17.02-.3.11l-.82-.46-.05-.19.5-.34c.06.04.1.08.12.12.02.04.02.09.03.14,0,.05,0,.1,0,.15,0,.05,0,.1.01.14.16.09.36.12.59.07.23-.05.38-.13.45-.26-.08-.04-.18-.05-.31-.02-.14.03-.27,0-.41-.08-.02-.06-.03-.21-.05-.46-.02-.24-.05-.37-.09-.4-.03-.02-.21.06-.52.24-.35.21-.65.4-.88.56-.31.22-.49.36-.53.44-.1.17-.11.41-.03.71.07.3.19.53.33.7l-.46.83.05.18c.11.1.17.19.19.27.02.09.04.17.06.24.02.08.04.15.08.22.03.07.11.14.23.2.03.02.07.04.12.09.05.04.1.08.15.11ZM221.56,176.44l.19-.04.07-.12c-.03-.1-.05-.19-.09-.26-.03-.08-.07-.13-.14-.17-.03.06-.05.15-.06.27,0,.12,0,.23.03.32ZM220.88,181.79c.06.04.11.03.13,0,.02-.03,0-.07-.07-.1-.06-.03-.09-.03-.11,0-.02.04,0,.08.05.11ZM222.84,174.99c.12.07.22.11.29.12.07.01.13-.04.2-.16.07-.11.11-.21.13-.29.02-.08-.01-.18-.09-.31l.18-.04c-.04.07.15.38.56.93l.12.07.19-.04.73-1.3-.6-.34c-.06.11-.18.16-.36.15-.15,0-.29-.05-.43-.13l-.22-.43-.12-.07c-.38.1-.57.17-.58.18-.04.06-.06.21-.08.44-.01.23-.01.49,0,.77.01.28.04.43.08.46ZM220.76,185.3c-.06-.03-.09-.08-.07-.13.02-.05.04-.11.08-.17l.12.07-.13.23ZM221.84,182.03c.18.1.32.13.43.1.1-.03.2-.13.3-.31-.18-.1-.32-.14-.42-.11-.1.03-.21.13-.3.31ZM221.8,185.54s-.04-.06-.01-.12c.04-.06.07-.08.11-.06.04.02.03.06,0,.12-.03.06-.07.08-.1.06ZM223.29,183.31c0-.15,0-.29-.01-.43-.01-.14-.07-.24-.2-.31-.05-.03-.11-.06-.16-.08-.06-.02-.1,0-.14.07-.04.09-.06.16-.05.23.02.13.11.25.26.33.06.04.17.11.3.18ZM223.75,182.49c.12.07.2.08.25.04.05-.04.11-.13.19-.26l-.25-.93-.19.05-.05.91.05.19ZM224.94,175.4l.19-.05-.12-.07-.07.12ZM225.68,175.19c.49-.14.75-.24.8-.32.03-.06.03-.11,0-.15-.04-.04-.09-.07-.16-.11-.19-.11-.34-.18-.46-.22-.2-.07-.33-.04-.39.06-.07.12-.09.24-.09.37,0,.13.07.23.18.29l.12.07ZM225.06,179.04c.03-.06.06-.12.08-.17.02-.05,0-.09-.06-.13-.06-.04-.11-.03-.15,0-.03.04-.07.09-.11.16l.23.13ZM225.3,178.08c.06-.11.12-.22.17-.32.05-.11.04-.17-.03-.21l-.11-.06-.19.05c-.07.12-.07.23-.02.34.05.11.11.18.18.21ZM224.91,179.88l.07-.12-.12-.07.05.19ZM224.91,180.96c.07.04.12.01.16-.07.04-.08.03-.13-.03-.17-.06-.03-.11-.01-.15.06-.04.08-.04.14.02.17ZM225.37,180.14c.07-.12.09-.19.09-.22,0-.03-.07-.08-.18-.15l-.14.24.23.13ZM225.82,179.62l.14-.24-.24-.13-.14.24.24.13ZM226.28,177.7l.13-.23-.23-.13-.13.23.23.13ZM226.19,178.43l.18-.06-.04-.18-.12-.07-.19.05.05.19.12.07ZM226.52,178.93c.06.03.12.06.18.08.05.02.1,0,.13-.07l-.06-.18-.12-.07-.13.23ZM226.87,178.03l.18-.05.07-.12c-.06-.24-.13-.38-.22-.43-.03.06-.05.15-.06.27,0,.12,0,.24.04.33Z"/>
        <path class="cls-8" d="M228.05,189.86c-1.41-.79-2.21-1.78-2.42-2.97-.19-1.07.12-2.32.93-3.75.43-.77.87-1.5,1.31-2.19.44-.69.92-1.51,1.46-2.46l.08-.41c.07-.12.24-.22.51-.3.27-.08.47-.08.59-.01l1.41.79c.26.15.37.45.32.93-.04.38-.14.69-.28.94-.04.08-.16.25-.36.5-.19.25-.42.62-.7,1.1-.27.48-.47.82-.59,1.02-.08.13-.16.27-.25.43-.04.07-.11.2-.2.36-.09.17-.2.38-.32.65-.12.27-.21.53-.27.77-.06.25-.07.47-.04.66.03.2.14.35.32.45.21.12.47.12.78-.02.26-.11.45-.26.57-.46l3.12-5.54c.11-.2.36-.24.74-.12.21.07.44.17.71.32.39.22.66.59.82,1.13.15.5.16,1,.03,1.51-.87,1.55-1.45,2.6-1.75,3.16l-.34.63c-.19.34-.42.71-.68,1.13-.27.41-.58.82-.95,1.22-.37.4-.78.7-1.23.91-.45.21-.95.29-1.49.25-.54-.04-1.15-.25-1.81-.62ZM226.16,187.42c.06.04.11.03.15-.01.04-.04.07-.1.11-.16l-.12-.07-.13.24ZM228.54,189.53l1.1-.31c.04.06.05.13.04.21-.01.08-.03.16-.04.24-.02.08-.02.15,0,.23.01.07.06.13.15.18.09-.03.17-.04.23-.05.14-.03.24-.05.27-.08.04-.03.1-.11.18-.25v-.3s.22-.07.22-.07c.2-.07.38-.14.51-.22.07-.05.15-.14.22-.27l.08-.42c.04-.07.04-.17,0-.3l-.82-.46-.37.1c.1.37.13.59.09.67-.13.24-.39.24-.79.02-.06-.04-.1-.09-.12-.16-.02-.08,0-.14.03-.21.06-.11.2-.21.4-.31.21-.1.35-.2.41-.31.04-.06.07-.12.08-.17.02-.05,0-.1-.07-.13-.43-.24-.87-.27-1.33-.09-.41.16-.73.44-.95.83-.13-.07-.24-.19-.34-.35-.1-.16-.22-.27-.35-.35-.09.17-.15.46-.17.87-.03.47.05.77.26.89l.37-.1.07-.12-.04-.49.13-.23c.1.12.18.38.23.79.05.41.11.64.19.68l.11.06ZM228.32,183.04c.11.06.23.11.33.15.11.04.2,0,.26-.12l-.04-.18c-.12-.07-.23-.08-.34-.02-.11.05-.18.11-.21.18ZM229.04,180.65l.13-.23c-.06-.03-.13-.04-.2-.02-.08.02-.13.06-.16.12l.23.13ZM229.14,182.41c.14.08.26.13.36.15.2.04.34-.02.43-.17.08-.14-.02-.33-.31-.57-.14-.12-.32-.24-.55-.37-.08.15-.13.31-.13.5-.01.23.06.38.21.47ZM229.84,181.72l.13-.23c.03-.06.06-.2.08-.42.02-.22.05-.36.08-.42l.59.33.93-1.65c-.16-.09-.34-.25-.57-.48-.22-.23-.38-.37-.47-.43-.06-.04-.12-.06-.18-.08-.05-.02-.09,0-.13.07-.12.21-.18.38-.2.51-.04.24.05.46.27.65.1.09.21.2.34.3l-.06.12s-.17-.07-.38-.14c-.21-.07-.34-.11-.38-.14l-.19.05c-.16.29-.24.63-.25,1.02,0,.47.13.77.39.92ZM228.62,188.01l.06-.11.19-.05-.07.12-.19.04ZM229.05,187.79c-.06-.03-.06-.09-.02-.17.04-.07.09-.1.15-.06.07.04.07.09.03.17-.05.08-.1.1-.17.07ZM231.38,187.24l.18-.05.07-.12-.05-.17-.12-.07-.18.05.11.37ZM231.69,185.87c.06.03.11,0,.15-.07.04-.07.03-.13-.02-.16-.06-.03-.11-.01-.15.06-.04.08-.04.14.02.17ZM231.08,189.71c.16.09.34.07.53-.08.16-.12.29-.28.41-.49.1-.18.18-.34.25-.48.07-.14.12-.32.16-.53-.08-.13-.14-.24-.18-.32-.04-.09-.09-.15-.15-.18-.05.09-.08.23-.09.42,0,.19-.03.33-.08.42-.13.23-.28.44-.43.62-.15.18-.29.38-.43.62ZM231.94,187.22s.07,0,.1-.06c.04-.06.04-.1,0-.12-.04-.02-.08,0-.11.06-.03.06-.03.1,0,.12ZM232.87,185.44c.06.03.12.05.18.06.06,0,.12-.05.19-.16l.59.33c.12-.21.12-.39.02-.54-.08-.09-.23-.21-.46-.34-.2-.12-.35-.18-.46-.21-.21-.04-.36.01-.44.16-.06.11-.04.24.06.38.08.12.19.22.34.3ZM232.73,184.28c.12.07.3.11.54.12.24.01.49,0,.74-.04.26-.04.5-.11.72-.2.22-.09.37-.21.46-.36.04-.06.05-.12.06-.18,0-.06-.05-.12-.17-.19l.44-.22c.05-.09.13-.15.25-.18,0-.15-.02-.25-.08-.31-.06-.06-.14-.12-.26-.19-.23-.13-.42-.18-.54-.15l.08-.42.07-.12.44-.22.06-.11c.03-.06.02-.15-.04-.24-.06-.1-.12-.17-.18-.2-.16-.09-.4-.11-.71-.05-.28.05-.49.12-.64.22-.11.2-.18.36-.21.5-.03.14-.07.27-.14.39-.06.11-.14.2-.23.26-.08.06-.16.15-.22.26-.07.12-.11.24-.12.35-.02.12-.03.24-.05.37-.02.13-.04.26-.07.41-.03.14-.1.3-.2.48ZM232.61,188.09c.06.04.12.01.16-.07.04-.08.03-.13-.03-.16-.06-.03-.11-.01-.15.06-.05.08-.04.14.02.17ZM233.79,183.79l.06-.11.18-.06-.07.12-.17.05ZM234.29,183.45l.2-.35.12.07c-.13.24-.24.33-.32.29ZM234.27,185.15l.19-.05-.12-.07-.07.12Z"/>
        <path class="cls-8" d="M236.26,194.33l-.94-.53c-.69-.63-1.05-1.42-1.08-2.34-.02-.78.17-1.65.58-2.62.25-.59.66-1.38,1.22-2.39.31-.56.71-1.05,1.2-1.49.49-.43,1.02-.76,1.6-.99.58-.22,1.2-.33,1.83-.3.64.02,1.27.21,1.89.56.44.25.79.58,1.05.99.26.41.44.86.53,1.33.09.48.1.96.02,1.46-.08.49-.23.94-.46,1.36-.35.62-.89.99-1.62,1.11-.6.1-1.32.04-2.14-.18-.56-.15-1.21-.39-1.95-.72l-.06.11c-.21.38-.3.78-.25,1.21.05.47.23.8.57.99.25.14.47.22.67.25.19.02.37,0,.54-.04.16-.04.32-.11.47-.19.15-.08.3-.14.46-.19.16-.05.33-.07.51-.06.19.01.39.09.63.22.21.12.35.23.42.33.09.17.12.41.07.72l-.27.48c-.62,1.1-1.45,1.69-2.49,1.78-.88.07-1.88-.21-3-.84ZM235.87,188.68c.08.05.19-.05.32-.29-.11-.06-.18-.09-.21-.08-.04,0-.08.07-.15.18l.04.18ZM236.82,187.82c.09-.16.16-.35.2-.56.05-.25.02-.41-.09-.47-.06-.03-.12-.04-.2-.02-.08.02-.13.06-.17.13-.08.16-.1.33-.04.52.06.19.16.32.29.4ZM235.9,191.65c.06.04.12.01.16-.07.04-.07.03-.13-.03-.17-.06-.03-.11,0-.15.06-.05.08-.04.14.02.17ZM235.97,192.93l.2-.35c-.23-.13-.38-.16-.42-.09-.06.11-.05.21.02.29.04.05.1.1.2.16ZM238.49,187.06c.04-.14.08-.25.13-.33.08-.13.15-.2.23-.21.08-.01.21.03.38.13.06.03.11.05.17.05.05,0,.12-.08.21-.23v-.31s.14-.23.14-.23c.24.14.49.25.73.33.25.08.46.18.64.28.18.1.34.22.5.36.16.14.32.26.5.36l.18.09c.12.06.23.08.31.05.04-.01.1-.09.18-.23-.24-.22-.45-.53-.65-.9-.23-.43-.29-.75-.17-.96.09.05.17.1.22.15.05.05.11.08.16.12.09.05.22.06.38.02.07-.24.03-.44-.12-.61-.1-.11-.33-.26-.68-.46-.36-.16-.9-.2-1.62-.14-.72.06-1.37.21-1.97.46-.67.27-1.11.59-1.32.96-.03.06-.03.15.01.29.04.14.09.22.15.26l1.29.73ZM236.61,189.57c.06.04.12.06.18.08.06.02.1,0,.13-.07.06-.11.1-.23.1-.36,0-.13-.02-.2-.08-.24l-.11-.07-.18.04c-.07.12-.12.24-.15.34-.04.11,0,.2.12.26ZM236.64,193.93c.07-.12.11-.21.13-.29.02-.08-.01-.18-.1-.31-.06-.03-.11-.03-.15.01-.03.04-.07.09-.1.16-.06.1-.05.2.03.28.04.05.1.1.19.16ZM236.99,193.04c.09.05.17.08.24.09.1.02.19-.02.25-.13.03-.05-.08-.18-.32-.39-.25-.21-.41-.33-.49-.38-.07.11-.07.25-.02.41.05.16.16.29.34.39ZM237.49,187.73c.1.06.22.04.38-.04.11-.06.2-.14.24-.24-.12-.07-.22-.09-.31-.08-.08.02-.15.05-.18.12l-.13.23ZM237.93,186.12c-.06-.03-.06-.09-.02-.17.04-.08.09-.1.15-.07.06.03.07.09.02.16-.04.08-.1.1-.16.07ZM237.75,188.65c.08.05.18-.05.32-.29-.23-.13-.37-.16-.42-.08l-.07.12.05.18.12.07ZM237.95,194.35c.16.09.29.14.39.13.1,0,.18-.03.25-.08.07-.05.12-.12.17-.2.05-.09.1-.17.16-.25.06-.08.13-.15.21-.22.08-.06.19-.1.32-.1-.06.11-.1.26-.13.45-.03.25,0,.4.09.46l.12.07.18-.05c.06-.11.08-.17.06-.2-.02-.02-.04-.05-.05-.08-.06-.08-.05-.19.02-.33.07-.12.17-.21.32-.29.14-.07.25-.17.31-.29-.23-.13-.43-.14-.59-.03-.15-.12-.28-.2-.4-.27-.13-.07-.34-.16-.64-.25-.3-.1-.52-.19-.68-.28-.09.17-.11.34-.04.53.07.19.17.32.3.38-.39-.22-.63-.25-.72-.09-.06.1-.03.28.09.54.12.26.21.4.28.44ZM239.68,188.81c.3.17.63.24.96.2.34-.04.58-.2.74-.48.16-.27.19-.51.09-.71-.08-.16-.25-.31-.51-.46-.35-.2-.71-.29-1.08-.26-.44.03-.75.21-.93.53-.12.21-.07.44.13.69.15.19.35.36.6.5ZM238.81,189.25c.06.04.12.01.16-.07.04-.07.03-.13-.03-.16-.06-.03-.1-.01-.15.06-.04.08-.04.14.02.17ZM238.72,193.55l-.12-.07.19-.05-.07.12ZM241,192.81c.06.03.12.05.18.06.06,0,.12-.05.19-.16.04-.08-.09-.21-.41-.39-.05.09-.08.17-.09.23-.02.11.02.19.13.25ZM241.86,189.59c.17.1.3.06.39-.11l-.05-.19-.11-.06c-.25.07-.4.14-.44.22.03.02.06.04.09.07.04.03.08.05.12.08ZM242.19,188.21c.06.03.11.06.17.08.05.02.09,0,.13-.07l-.06-.18c-.06-.03-.1-.03-.14.01-.03.04-.07.09-.1.16ZM243.01,186.18l.13-.23-.23-.13-.13.23.23.13ZM242.57,189.19l.17-.05-.04-.18-.13.23ZM242.99,187.88c.06.04.11.03.13,0,.02-.04,0-.08-.06-.11-.06-.03-.1-.03-.12.01-.02.04,0,.08.05.11ZM243.36,187.78c.06.03.11,0,.16-.07.04-.08.04-.13-.02-.16-.06-.03-.1-.01-.15.06-.04.08-.04.14.02.17Z"/>
        <path class="cls-8" d="M245.12,199c-.44-.25-.83-.58-1.17-1.01-.33-.42-.59-.88-.76-1.38-.18-.5-.26-1-.25-1.52,0-.52.14-1,.39-1.44.3-.55.64-.9,1.01-1.06.37-.16.81-.09,1.32.2l.35.2.16.55-.73,1.29c-.04.08.13.23.53.46.28.16.58.17.88.02.31-.14.55-.37.72-.68.25-.45.29-.91.11-1.4-.12-.29-.38-.71-.78-1.25-.4-.54-.66-.97-.77-1.29-.18-.49-.13-.98.13-1.45.5-.89,1.23-1.38,2.2-1.48.84-.09,1.72.12,2.62.62.76.43,1.34.97,1.75,1.62.48.78.52,1.52.12,2.22-.23.41-.51.68-.83.8-.32.12-.72.04-1.19-.22-.18-.1-.31-.24-.39-.41-.08-.17-.16-.36-.22-.56-.07-.2-.14-.38-.22-.56-.08-.17-.21-.31-.39-.41-.23-.13-.42-.08-.55.16-.1.18-.12.4-.04.66.07.26.18.56.34.88.15.32.31.67.49,1.04.68,1.46.76,2.65.24,3.58-.25.45-.56.84-.93,1.19-.37.35-.78.61-1.22.8-.45.19-.92.27-1.41.26-.5-.01-.99-.16-1.49-.44ZM244.23,197.26c.03-.06.05-.15.05-.27,0-.13,0-.23-.03-.33l-.18.04-.07.12c.03.1.05.18.08.26.03.07.08.13.14.17ZM245.38,198.53c.28.16.66.26,1.14.32.53.07.85,0,.98-.22.07-.11.09-.19.07-.23-.02-.04-.12-.11-.29-.2.11-.07.26-.1.47-.09.15,0,.29.06.44.13-.03-.1-.04-.22-.04-.35,0-.14,0-.28.01-.43.12.06.2.08.24.04.05-.04.09-.09.12-.15.07-.12.12-.25.15-.39.04-.15.1-.31.2-.49l-.12-.07c-.2-.11-.34-.08-.44.09-.04.07-.07.16-.1.25-.03.09-.05.17-.09.23-.08-.05-.14-.13-.17-.26-.01-.04-.03-.09-.05-.14-.02-.04-.1-.11-.24-.18-.37.11-.66.36-.88.75-.05.09-.06.16-.02.22.04.06.09.11.15.17.07.05.13.11.19.19.06.07.1.17.11.29-.17-.1-.33-.14-.46-.13-.14,0-.27.02-.39.05-.12.03-.25.05-.37.06-.12.02-.26-.02-.41-.1l-.03-.49c-.16-.09-.32-.15-.47-.18-.21-.04-.35,0-.44.14-.03.05.04.29.19.71l.07.21.47.27ZM244.92,196.57c.07.04.13.04.21.02.08-.02.13-.06.17-.13.17-.31.22-.49.14-.53l-.12-.07-.4.71ZM247.17,189.3c.3,0,.53-.13.68-.4-.17-.1-.3-.15-.38-.17-.08-.02-.15.03-.22.15-.13.24-.16.38-.08.42ZM246.94,191.34c.13.08.36.11.69.12.33,0,.52-.05.59-.17l-.24-.14-.29-.02-.12-.07c-.1-.06-.12-.13-.07-.22.02-.04.05-.07.08-.1.04-.03.06-.07.08-.09l.47.26c.04-.07.09-.36.15-.84.05-.49.05-.75,0-.78l-.12-.07c-.03.05-.11.11-.25.17-.14.06-.22.12-.25.17-.08.14-.11.25-.1.33,0,.08,0,.15-.04.21-.07.12-.16.23-.26.32-.11.09-.19.2-.26.31-.07.12-.12.24-.15.35-.03.11,0,.19.12.26ZM245.81,197.22c.06.03.12.04.2.02.07-.02.13-.06.16-.12l-.23-.13-.13.23ZM248.63,190.27s.22.01.54-.01c.49-.05.8-.07.94-.08.36,0,.59.02.7.08l-.33.59.35.2c.09-.15.18-.26.29-.33.1-.07.2-.12.31-.17s.21-.1.3-.15c.09-.05.18-.14.25-.26.09-.16.05-.34-.11-.55-.14-.17-.29-.3-.45-.39-.12-.07-.25-.11-.39-.14-.14-.03-.27-.07-.39-.14-.06-.03-.13-.1-.22-.2-.09-.1-.19-.19-.3-.25-.05-.03-.23-.05-.54-.08-.31-.03-.62-.04-.93-.03-.33.02-.53.08-.6.2-.03.06-.04.13-.01.2.02.08.06.13.13.17.09.05.22.07.41.08.19,0,.33.03.42.08.12.07.17.13.15.2,0,.07-.05.16-.11.27l-.43.22c-.08.14-.13.25-.13.3,0,.06.05.12.16.18ZM247.99,192.24c.06.04.12.01.16-.07.04-.07.03-.13-.03-.16-.06-.03-.11-.01-.15.06-.04.08-.04.14.02.17ZM247.5,197.24c-.06-.04-.12-.07-.16-.11-.04-.04-.05-.08-.02-.14l.24.13-.06.11ZM248.29,195.84l.07-.12-.05-.19-.07.12.05.19ZM249.52,189.23c-.06-.03-.06-.09-.02-.17.04-.08.09-.1.15-.06.07.04.08.09.03.17-.04.08-.1.1-.16.07ZM250,189.5s-.02-.02-.01-.03c0-.02.03-.04.06-.05.07-.03.11-.04.14-.02.02,0,.02.03,0,.05-.03.06-.06.1-.07.1-.01,0-.05-.01-.12-.05ZM249.25,197.45c.06.03.11.03.14-.02.04-.05.07-.1.11-.15.1-.17.16-.3.19-.39.05-.16.01-.27-.09-.32-.06-.04-.12-.06-.18-.06-.06,0-.12.05-.18.16-.22.39-.21.65.02.79ZM249.69,194.44l.07-.11-.11-.06-.06.11.11.06ZM249.47,195.41c.05.03.11.06.16.08.05.02.1,0,.13-.07l-.23-.13-.07.12ZM249.67,196.14c.12.07.2.08.25.05.05-.04.09-.09.13-.15.06-.12.09-.19.08-.22,0-.04-.08-.08-.19-.15l-.18.06-.07.11-.02.3ZM251.46,191.87c.14-.12.25-.19.35-.21.09-.03.18-.04.26-.04.08,0,.17-.01.25-.02.08-.01.19-.06.31-.14,0-.12-.03-.21-.1-.25-.03-.02-.06-.03-.09-.04-.04,0-.07-.02-.09-.04.01-.03.05-.07.09-.11l.05-.07c.1-.18.06-.32-.12-.42-.1-.05-.26.03-.47.24-.17.16-.31.33-.41.51l-.13.19s-.03.06-.05.1c-.02.05-.02.1,0,.15.01.06.07.11.15.16Z"/>
        <path class="cls-8" d="M253.57,204.69c-.71-.4-1.21-.84-1.52-1.32-.4-.63-.43-1.26-.07-1.89l3.32-5.89-.11-.37-1.17-.66c-.16-.09-.2-.34-.13-.76.05-.36.15-.65.27-.87.26-.46.73-.58,1.42-.36.19.06.37.11.54.16.43.13.75.12.94-.02.1-.04.32-.31.69-.8.39-.53.71-.91.96-1.14.39-.36.73-.46,1.01-.3l1.29.73c.49.28.44.93-.14,1.97-.1.17-.18.31-.26.43-.07.12-.13.2-.15.24l.11.38c.58.32.95.7,1.12,1.13.2.49.15,1.02-.17,1.57l-.26.47c-.21.1-.81.09-1.8-.02l-.67-.06c-.49-.03-.75,0-.81.1l-2.25,4.01c-.04.08-.03.15.05.23.08.07.19.15.33.24.39.26.65.51.78.76.2.41.13.9-.2,1.49-.31.55-.78.87-1.39.94-.57.07-1.14-.05-1.72-.38ZM254.13,204.23c.25.14.49.21.73.23.27.02.46-.07.56-.26.02-.04.04-.09.06-.14l.17.25.12.07c.1.06.2-.02.32-.23.04-.08.08-.16.12-.25.03-.08.12-.26.27-.52-.04-.15-.15-.41-.32-.81-.25-.14-.52-.25-.83-.33-.4-.1-.64-.08-.72.08-.07.12-.09.22-.07.29.02.08.05.15.08.24.02.08.04.19.03.31,0,.12-.06.28-.18.49-.06-.03-.1-.1-.12-.21-.03-.11-.05-.23-.08-.36-.03-.13-.08-.27-.14-.4-.06-.13-.17-.24-.32-.33-.08-.04-.31-.03-.72.03-.41.06-.64.15-.7.26-.07.12-.08.22-.06.32.02.1.07.21.15.34l1.06.6h.3s.28.33.28.33ZM252.75,201.75c.15,0,.25-.02.3-.06.05-.04.09-.09.13-.16.04-.06.06-.12.08-.17s0-.1-.07-.13c-.12-.06-.2-.08-.24-.04-.05.03-.09.08-.12.15-.13.24-.16.38-.08.42ZM257.72,196.48c.15.08.34.1.58.04.24-.06.47-.14.7-.25.23-.11.44-.2.62-.29.18-.09.29-.13.31-.11.07.1.11.18.11.24,0,.06-.02.14-.08.25l-.36.1-.07.12.36.2s.07,0,.13-.07c.12-.13.25-.32.38-.56.18-.32.27-.51.26-.57,0-.06-.04-.11-.11-.15-.03-.02-.07-.04-.13-.06-.05-.02-.1-.05-.17-.09.1-.18.14-.32.12-.43-.03-.16-.19-.38-.47-.68-.12-.13-.22-.29-.3-.49.11-.2.21-.32.3-.38.08-.06.18-.18.29-.38h-.3c-.14-.09-.25-.17-.32-.27-.08-.1-.14-.16-.2-.19l.07-.12.3.02.06.18.23.13c.12.07.2.08.25.03.05-.05.11-.13.18-.25.1-.18.13-.35.08-.52-.05-.17-.16-.3-.34-.4-.16-.09-.49-.08-.96.03-.48.12-.75.24-.82.36-.06.11-.1.23-.11.33,0,.1-.04.21-.1.33-.1.18-.24.33-.42.45-.18.12-.34.22-.47.3.24.13.36.27.38.43.02.15-.02.31-.12.49l-.13.23c-.06-.04-.17-.12-.32-.26-.15-.14-.25-.22-.32-.26l-.27-.61c-.05-.04-.11-.08-.17-.12-.32-.18-.65-.21-.99-.09-.35.11-.61.33-.79.66-.06.11-.07.23,0,.34.07.12.15.21.27.27.06.04.12.06.18.06.06,0,.12-.05.19-.16.01-.03.01-.06-.01-.1-.03-.04-.05-.09-.08-.14-.02-.05-.04-.12-.05-.19,0-.07.01-.15.06-.24l.11.06c.05.03.13.13.23.3.08.14.13.27.16.39l.27-.48.12.07c.07.04.18.3.33.78.15.48.19.77.13.88l.36.2c.12.07.23.09.32.08.09-.01.18-.03.26-.06.09-.03.17-.05.25-.07.08-.02.2.02.36.11l-.33.59ZM253.61,200.21l.06-.11-.24-.13c-.03.06-.02.1.02.14.04.03.1.07.16.11ZM253.95,199.33c.24.13.42.08.56-.15l-.35-.2-.2.36ZM253.82,202.05l.2-.35-.23-.13-.2.35.23.13ZM253.93,201.02l.07-.12-.12-.07-.07.12.12.07ZM254.03,200.3c.06.03.11,0,.16-.07.04-.08.04-.14-.02-.17-.06-.03-.11,0-.16.07-.04.08-.04.14.02.17ZM254.98,199.44c.06.03.11,0,.15-.07.04-.08.04-.13-.02-.16-.06-.03-.1,0-.15.07-.05.08-.04.14.02.17ZM254.51,201.65c.06.04.12.05.18.06.06,0,.12-.05.19-.16.03-.06.06-.12.08-.17.02-.05,0-.09-.06-.12-.1-.06-.19,0-.28.15-.04.07-.08.15-.11.25ZM255.45,198.61l.06-.11-.24-.14c-.04.06-.03.11.01.14.04.04.1.07.16.11ZM255.75,197.24l.18-.06.07-.12c.04-.08-.05-.18-.29-.31-.05.09-.08.17-.09.23-.02.11.02.19.13.25ZM254.97,200.83c.07.04.13.04.2.02.08-.02.13-.07.16-.13l-.23-.13-.14.24ZM256.17,198.41c.15.08.3.05.46-.09.08-.07.18-.21.29-.41-.15-.09-.29-.12-.44-.12-.19.02-.33.1-.41.26-.04.06-.04.13-.02.21.02.08.06.13.12.16ZM256.36,197.26c.06.04.13.04.21.03.08-.02.13-.06.17-.12-.06-.03-.13-.04-.21-.02-.07.02-.13.06-.16.12ZM255.36,203.99c-.06-.03-.06-.09-.02-.17.04-.08.09-.1.15-.07.06.04.07.09.03.17-.05.08-.1.1-.16.07ZM257.05,195.48l-.12-.07.06-.11.12.07-.06.11ZM257.45,194.77c-.06-.04-.08-.07-.06-.12.02-.03.06-.03.12,0,.07.04.09.07.07.11-.02.04-.07.04-.13,0ZM257.33,197.19l.2-.35c-.24-.13-.42-.08-.55.15l.35.2ZM258.42,194.7l-.05-.19c.05-.1.17-.15.34-.16.13,0,.24.02.33.08-.07.13-.23.21-.46.24l-.16.04ZM259.16,192.02c-.06-.03-.06-.09-.02-.17.04-.08.09-.1.16-.07.06.03.06.09.02.17-.04.08-.1.1-.15.07ZM258.56,195.97s-.05-.06-.01-.12c.03-.06.07-.08.11-.05.04.02.05.06.01.12-.03.06-.07.07-.11.05ZM259.58,195.67c-.11-.06-.23-.13-.34-.21-.12-.08-.21-.18-.29-.31l.74-.2c.08.13.1.25.06.37-.04.12-.09.23-.16.35ZM260.24,192.01c-.06-.03-.08-.07-.05-.11.02-.04.06-.04.12-.01.06.04.08.08.06.11-.02.04-.06.04-.13,0ZM260.61,196.87c.07.04.12.03.15-.01.04-.04.07-.1.11-.16l-.12-.07-.14.24Z"/>
      </g>
      <g>
        <g>
          <path class="cls-5" d="M126.66,125.16c-1.45,1.01-2.67,1.84-3.66,2.5l-2.3,16.09c.66-.55,1.4-1.24,2.22-2.08.87-.9,1.74-1.89,2.6-2.96l2.02-14.14c-.31.2-.61.4-.88.6Z"/>
          <path class="cls-5" d="M121.21,123.11l1.44-10.09c-.18.26-.36.52-.52.79-.75,1.17-1.35,2.31-1.81,3.42-.46,1.12-.76,2.13-.88,3.02-.19,1.3-.08,2.13.32,2.51.36.34.85.45,1.46.36Z"/>
          <path class="cls-5" d="M130.5,123.11c-.18.04-.37.09-.57.15l-1.66,11.65c.2-.31.39-.62.58-.94.83-1.37,1.53-2.74,2.11-4.1.58-1.36.95-2.63,1.12-3.83.18-1.27.11-2.1-.21-2.5-.33-.4-.78-.54-1.36-.44Z"/>
          <path class="cls-5" d="M142.09,83.91l-38.44,25.55c-2.57,1.71-4.16,4.54-4.3,7.62l-2.1,49.1c-.12,2.73,3.01,4.35,5.17,2.69l38.52-29.59c1.45-1.11,2.36-2.79,2.5-4.61l3.63-47.84c.2-2.67-2.76-4.4-4.99-2.92ZM137.51,102.54c.07.57.06,1.15-.02,1.76-.08.57-.32,1.26-.7,2.08-.39.83-.86,1.48-1.41,1.96-.64.56-1.05.66-1.22.32-.17-.35-.3-.76-.38-1.24-.11-.61-.25-1.12-.42-1.53-.14-.34-.42-.57-.85-.68l-1.81,12.68c.4-.22.76-.4,1.08-.55.6-.28,1.11-.46,1.51-.55.4-.09.77-.13,1.11-.13.38.02.7.19.95.49.25.31.44.69.56,1.16.12.47.18,1,.19,1.58.01.58-.02,1.16-.1,1.72-.23,1.59-.67,3.32-1.34,5.2-.67,1.89-1.54,3.84-2.62,5.87-1.09,2.05-2.41,4.16-3.96,6.33-.16.22-.33.45-.49.67l-.94,6.98-2.53,1.94.79-5.57c-.73.85-1.49,1.7-2.3,2.54-.82.87-1.67,1.7-2.53,2.51l-.56,4.05-2.76,2.12.55-3.85c-.87.64-1.71,1.15-2.5,1.52-.82.38-1.54.52-2.15.42-.93-.14-1.6-.71-2.01-1.71-.41-1.01-.52-2.19-.33-3.54.1-.67.41-1.5.94-2.47.53-.96,1.13-1.76,1.8-2.41.74-.71,1.22-.92,1.44-.65.23.28.47.9.74,1.87.07.35.21.77.42,1.26.2.49.59.78,1.15.87.33.06.74,0,1.22-.18l2.29-16.04s-.06.03-.09.05c-.74.43-1.38.73-1.9.91-.53.19-1.04.27-1.53.26-.28,0-.6-.04-.96-.14-.36-.1-.68-.35-.94-.75-.27-.4-.46-.95-.58-1.67-.12-.71-.1-1.67.07-2.89.29-2.05.92-4.16,1.87-6.31.94-2.13,2.08-4.18,3.4-6.14,1.14-1.69,2.38-3.28,3.72-4.77l1.03-6.88,2.64-1.76-.82,5.74c.75-.7,1.49-1.33,2.23-1.92.78-.62,1.58-1.18,2.38-1.69l.74-5.14,2.45-1.63-.82,5.54c.12-.05.25-.1.38-.14.78-.26,1.48-.32,2.1-.18.62.15,1.08.57,1.41,1.28.18.39.31.86.38,1.43Z"/>
          <path class="cls-5" d="M125.62,109.37l-1.82,12.7c.87-.51,1.69-1.01,2.47-1.51.75-.47,1.42-.88,2.03-1.25l1.94-13.6c-.76.4-1.59.96-2.51,1.7-.74.61-1.45,1.26-2.12,1.96Z"/>
        </g>
        <g>
          <path class="cls-9" d="M105.74,75.68c.03-.08-.07-.13-.13-.08-2.54,2-5.55.38-6.31-.09-.07-.04-.14.02-.12.1.89,2.98,3.11,3.14,3.11,3.14,2.36-.1,3.23-2.31,3.45-3.06Z"/>
          <path class="cls-9" d="M85.35,76.17s-2.18.46-2.66,3.53c-.01.07.08.13.13.08.69-.57,3.45-2.58,6.24-.95.07.04.15-.03.12-.1-.33-.71-1.49-2.78-3.84-2.56Z"/>
          <path class="cls-9" d="M85.96,86.15c-2.69,1.97-6.76.94-8.2.49-.12-.04-.21.12-.11.21,5.16,4.69,7.77.86,8.49-.55.06-.11-.08-.22-.18-.15Z"/>
          <path class="cls-9" d="M78.3,79.57c.07.04.15-.03.12-.1-.33-.71-1.49-2.78-3.84-2.56,0,0-2.18.46-2.65,3.53-.01.07.08.13.13.08.69-.57,3.45-2.58,6.24-.95Z"/>
          <path class="cls-9" d="M116.37,74.59c-2.55,1.99-5.55.38-6.31-.09-.06-.04-.14.02-.12.1.89,2.98,3.11,3.14,3.11,3.14,2.35-.1,3.22-2.31,3.45-3.06.02-.08-.07-.13-.13-.08Z"/>
          <path class="cls-9" d="M105.49,86.66c-.08.1.02.24.14.19,1.37-.65,5.26-2.22,8.19-.63.11.06.23-.07.16-.17-.91-1.3-4.01-4.73-8.49.62Z"/>
          <path class="cls-9" d="M141.31,72.71l-43.74-19.68c-1.77-.8-3.81-.75-5.54.13l-39.42,19.97c-4.66,2.36-4.71,9.01-.07,11.43l37.43,19.58c5.33,2.79,11.78,2.36,16.7-1.1l35.18-24.77c2.04-1.43,1.74-4.54-.53-5.56ZM90.34,86.47s-3.21,7.04-7.79,6.91c0,0-6.12.82-11.82-9.49,0,0-4.89-9.28-1.82-14.02.14-.21.44-.24.61-.06,1.16,1.25,5.4,5.29,11.19,4.44,0,0,6.83-.94,9.47-6.71,0,0,.22-1.06,1.2.63.98,1.69,3.56,8.53-1.04,18.29ZM117.79,84.59s-3.21,7.04-7.79,6.91c0,0-6.12.82-11.82-9.49,0,0-4.89-9.28-1.82-14.02.14-.21.44-.24.61-.06,1.15,1.25,5.4,5.29,11.19,4.44,0,0,6.83-.94,9.47-6.71,0,0,.23-1.06,1.2.63.98,1.69,3.56,8.53-1.04,18.29Z"/>
        </g>
        <g>
          <path class="cls-6" d="M64.11,139.05s.09.02.13.03c.1.03.2.05.28.07,0,0,0,0,0,0l.27-1.23-.02-.05c-.1-.03-.19-.05-.29-.08-.15-.05-.29-.1-.44-.15l-.24,1.08s0,0,0,0l.29.33Z"/>
          <path class="cls-6" d="M65.11,137.95s0,0,0,0c0,0,.48.4.44.87-.03.43-.17.83-1.02.68-.09-.02-.2-.04-.31-.07-.05-.01-.1-.03-.16-.04,0,0,0,0,0,0-.36-.08-.78-.1-1.15-.02-.1.02-.2.04-.29.08-.65.24-1.09.86-.7,2.16.12.38.27.76.45,1.12.25,0,.47-.02.68-.05-.41-.79-.66-1.55-.49-2.02,0,0,.04-.42.82-.38.13,0,.28.02.46.06.19.04.41.1.67.18.15.05.3.09.44.1.11.02.22.02.32.02,1.2-.04,1.57-1.38.91-2.6-.3.01-.66-.02-1.08-.11Z"/>
          <path class="cls-6" d="M64.02,125.6c.56-.32,1.34-.41,2.61-.2-.52-.47-1.12-1-1.82-1.58,0,0-1.55-1.13-1.53-2.14,0,0-.15-.97,1.1-.33,1.27.65,1.42,1.02,2.25.68.83-.35-1.37-3.73-3.45-2.92-2.05.79-1.72,3.85-.2,5.45.38.4.72.74,1.03,1.05Z"/>
          <path class="cls-6" d="M63.44,142.63c.12-.03.23-.06.34-.1l.32-1.41s-.03-.04-.04-.06l-.24-.33c-.13-.03-.26-.04-.36-.04-.02,0-.04,0-.06,0l-.32,1.41c.06.14.13.29.21.45l.06.12s.06-.01.1-.02Z"/>
          <path class="cls-6" d="M64.5,140.9c-.1-.03-.19-.06-.28-.08.61.83.48,1.2.48,1.2-.05.55-.55.84-1.17.98-.09.02-.19.04-.28.05-.23.04-.46.05-.69.06-.1,0-.2,0-.3,0-.46,0-.87-.04-1.12-.06-.1-.01-.18.06-.2.18,0,.04-.01.09,0,.15.02.16.12.29.24.32.3.08.89.21,1.55.23.11,0,.22,0,.33,0,.23,0,.46-.03.69-.07.1-.01.19-.04.29-.06.28-.08.55-.19.79-.35.83-.54.74-1.51.33-2.42-.21,0-.42-.05-.65-.13Z"/>
          <path class="cls-6" d="M66.81,125.44c.1.02.21.04.31.06.15.03.3.06.46.1l2.05-9.15c.72.15,1.39-.34,1.59-1.23.23-1.04-.27-2.23-1.13-2.65-.85-.42-1.72.08-1.95,1.11-.2.88.13,1.86.76,2.4l-2.1,9.36Z"/>
          <path class="cls-6" d="M64.02,116.97c.69-.74,2.15-1.13,2.98-1.3-.16-.25-.3-.52-.44-.82-1.99-.18-5.26,0-5.26,0,.41,1.91,2.71,2.12,2.71,2.12Z"/>
          <path class="cls-6" d="M59.27,112.14c.28.11,2.65,1.03,5.37,1.17,0,0,1.55-.1,1.93.88.39.98.91,1.89,1.7,2.52l.2-.89s-.9-.76-1.2-1.94c-.31-1.17-2.03-1.24-2.03-1.24,0,0-2.13-.06-3.87-1.05-1.71-.97-2.25-.84-3.58-2.4,0,0-.07-.06-.04.17,0,0,.13,1.69,1.46,2.74.02.02.04.03.05.03Z"/>
          <path class="cls-6" d="M66.33,114.31c-.07-.17-.22-.32-.44-.43-.16-.08-.34-.13-.51-.17,0,0-.01,0-.02,0-.26-.03-.44-.03-.44-.03-1.62.08-5.21-.66-5.21-.66.41,1.02,1.28,1.36,1.28,1.36.61.01,4.24.21,5.48.28-.05-.11-.09-.22-.14-.33Z"/>
          <path class="cls-6" d="M68.2,117.05l-.05-.04c-.35-.28-.67-.63-.95-1.04-.78.21-2.17.68-2.73,1.38,0,0-.02,1.36,3.03,2.86l.71-3.15Z"/>
          <path class="cls-6" d="M63.97,144.21c-.2.04-.4.07-.6.08h0c-.09,0-.17,0-.26.01-.12,0-.23,0-.34,0-.07,0-.14,0-.2,0l-.73,3.23c-.06.25.06.55.25.68.2.13.4.03.45-.21l.81-3.61c.5.7.97,1.25,1.22,1.51.1.11.23.12.31.03.02-.03.04-.07.05-.12.03-.12,0-.26-.09-.37-.21-.27-.54-.71-.89-1.23Z"/>
          <path class="cls-6" d="M69.94,117.93h-.06s-.71,3.16-.71,3.16c3.12,1.78,3.68.65,3.68.65-.18-1.12-1.15-2.84-1.7-3.75-.4.06-.8.04-1.2-.06Z"/>
          <path class="cls-6" d="M71.43,117.94c.62.92,1.68,2.65,1.96,3.94,0,0,2.09,2.15,3.3.98,0,0-2.8-3.4-4.56-5.17-.24.11-.47.2-.7.25Z"/>
          <path class="cls-6" d="M73.62,117.9s-.01-.01-.02-.02c-.16-.13-.33-.26-.5-.35-.24-.12-.42-.14-.55-.06-.08.05-.17.1-.26.14,1.08,1.14,4.35,4.57,4.9,5.18,0,0,.95.61,1.78.17,0,0-3.59-3.02-4.97-4.67,0,0-.16-.16-.39-.39Z"/>
          <path class="cls-6" d="M66.37,133.42c-.17-.05-.33-.1-.49-.13.81,1.05.91,1.78.91,1.78.12.99-.68,1.15-1.63,1.13-.12,0-.25-.01-.38-.02-.51-.03-1.03-.09-1.47-.08-.02,0-.04,0-.07,0-.08,0-.17.01-.25.03-.96.23-1.2,1.61-.34,2.91.33-.09.68-.1,1-.07-.69-.79-.64-1.25-.49-1.6.16-.39.67-.19.67-.19,0,0,0,0,0,0,.23.1.45.17.66.24.58.18,1.06.26,1.45.26.12,0,.23,0,.33-.01.79-.07,1.08-.44,1.08-.44,1.11-.96.76-2.46.2-3.66-.38.02-.78-.03-1.19-.16Z"/>
          <path class="cls-6" d="M86.24,106.52l-37.32-19.7c-4.55-2.4-9.94,1.25-9.39,6.37l4.85,45.57c.21,1.95,1.29,3.7,2.95,4.75l36.42,23.08c4.21,2.67,9.72-.26,9.87-5.24l1.2-40.14c.18-6.13-3.14-11.83-8.56-14.69ZM89.25,132.65l-8.69.17,6.71,8.66-8.66,9.95-8.18-11.33-3.01,13.4-11.08-7.01,2.98-13.27-9.69.18-1.51-14.18,6.86-.5-5.08-7.02,6.98-9.41,7.27,9.38,2.84-12.67,11.31,5.97-2.75,12.24,10.91-.8,2.78,16.25Z"/>
          <path class="cls-6" d="M71.95,116.24c-.74.67-1.78.45-1.78.45l-.2.89c.9.23,1.7-.01,2.43-.45.73-.43,2.02,1.13,2.02,1.13,2.46,2.57,5.05,4.22,5.37,4.41.02.01.04.02.07.03,1.76.5,2.68-.82,2.68-.82.15-.17.04-.19.04-.19-2.01-.05-2.46-.71-4.5-1.63-2.01-.91-3.89-2.92-3.89-2.92,0,0-1.49-1.58-2.24-.91Z"/>
          <path class="cls-6" d="M69.03,123.33c.52,1.08.81.94,2.11,1.68,1.32.75.78,1.38.78,1.38-.41.84-2.16.16-2.16.16-.8-.25-1.5-.44-2.1-.58-.2-.04-.38-.08-.55-.12-1.41-.29-2.24-.25-2.81.02-.1.05-.19.1-.27.16-.29.2-.51.48-.71.82-.6,1-.45,2.65.47,4.08.5-.16,1.02-.2,1.4-.2.1,0,.23,0,.38,0,.02,0,.05,0,.08,0-.51-.69-1.03-1.52-1.02-2.17.01-.76.58-.99,1.3-.91.23.03.49.09.74.18.06.02.13.04.19.07.75.29,1.48.56,2.48.79.11.03.22.05.34.08.39.08.81.16,1.29.23,1.97.31,3.57-1.84,2.14-4.6-1.42-2.72-4.59-2.15-4.07-1.08Z"/>
          <path class="cls-6" d="M67.97,130.47c-.26.52-1,.64-1.67.65-.13,0-.25,0-.37,0-.28,0-.52-.03-.69-.02-.22,0-.72.01-1.23.16-.09.03-.19.06-.28.09-.88.33-1.7,1.11-1.27,2.96,0,0,.07.57.62,1.44.04,0,.08,0,.12,0,.33-.01.7.02,1.1.05.07,0,.13,0,.2.02-.73-.98-1.26-1.92-.78-2.55,0,0,.36-.45,1.39-.42.13,0,.28.02.44.04.25.04.54.1.86.2.35.11.68.16.99.15.1,0,.21,0,.3-.02,1.32-.16,2.13-1.3,2.05-2.72-.02-.48-.09-.92-.24-1.38-.89-.2-1.57-.42-2.19-.65.6.66.96,1.43.66,2.03Z"/>
          <path class="cls-6" d="M65.13,135.83s.1,0,.15,0l.5-2.22s-.04-.06-.06-.08l-.24-.31c-.12-.01-.23-.03-.34-.03-.03,0-.06,0-.08,0l-.5,2.21c.04.05.08.11.12.16l.19.26c.09,0,.18,0,.26.01Z"/>
          <path class="cls-6" d="M66.25,130.75c.06,0,.12,0,.17,0l.51-2.28-.22-.25s-.04-.02-.06-.02c-.15-.05-.3-.09-.44-.12l-.51,2.26c.04.06.08.12.13.18l.18.24c.08,0,.16,0,.24,0Z"/>
        </g>
      </g>
      <path class="cls-1" d="M168.37,111c0,41.08-33.3,74.38-74.38,74.38S19.6,152.08,19.6,111,52.9,36.62,93.99,36.62s74.38,33.3,74.38,74.39ZM93.58,47.85c-35.11,0-63.56,28.46-63.56,63.56s28.46,63.56,63.56,63.56,63.56-28.46,63.56-63.56-28.46-63.56-63.56-63.56Z"/>
      <path class="cls-4" d="M156.86,41.82c0-2.11-1.12-3.6-2.77-4.92-11.54-9.24-25.28-15.84-40.31-18.89l-2.03-.32V5.51c0-3.04-2.69-5.51-6.01-5.51h0c-3.32,0-6.01,2.47-6.01,5.51v10.77s-1.7-.1-1.7-.1c-1.06-.04-2.11-.05-3.18-.05-1.16,0-2.31.02-3.46.06l-1.47.06V5.51c0-3.04-2.69-5.51-6.01-5.51h0c-3.32,0-6.01,2.47-6.01,5.51v12.13l-1.66.32C32.76,26.6,0,64.96,0,110.97s32.83,84.44,76.36,93.04l1.55.29v12.05c0,3.04,2.69,5.5,6.01,5.5h0c3.32,0,6.01-2.47,6.01-5.5v-10.67l1.38.06c1.17.04,2.35.06,3.53.06s2.26-.02,3.38-.06l1.52-.06v10.67c0,3.04,2.69,5.5,6.01,5.5h0c3.32,0,6.01-2.47,6.01-5.5v-12.05l1.25-.23c14.8-2.87,27.8-8.75,39.27-17.64,2.08-1.62,2.54-3.28,2.35-4.83-.52-4.3-4.62-6.24-8.29-4.29-1.17.63-2.86,1.48-5.28,3.2-13.04,9.28-29,14.73-46.23,14.73-44.1,0-84.28-40.17-84.28-84.27S50.74,26.69,94.84,26.69c18.27,0,35.11,6.13,48.56,16.46,2.25,1.72,3.64,2.97,6.22,3.58,2.9.69,7.23-1.59,7.23-4.9Z"/>
    </g>
  </g>
</svg>